<?xml version="1.0" encoding="UTF-8" standalone="no"?>
<!-- Created with Inkscape (http://www.inkscape.org/) -->

<svg
   xmlns:dc="http://purl.org/dc/elements/1.1/"
   xmlns:cc="http://creativecommons.org/ns#"
   xmlns:rdf="http://www.w3.org/1999/02/22-rdf-syntax-ns#"
   xmlns:svg="http://www.w3.org/2000/svg"
   xmlns="http://www.w3.org/2000/svg"
   xmlns:sodipodi="http://sodipodi.sourceforge.net/DTD/sodipodi-0.dtd"
   xmlns:inkscape="http://www.inkscape.org/namespaces/inkscape"
   width="744.09448819"
   height="1052.3622047"
   id="svg2"
   version="1.1"
   inkscape:version="0.48.2 r9819"
   sodipodi:docname="New document 1">
  <defs
     id="defs4" />
  <sodipodi:namedview
     id="base"
     pagecolor="#ffffff"
     bordercolor="#666666"
     borderopacity="1.0"
     inkscape:pageopacity="0.0"
     inkscape:pageshadow="2"
     inkscape:zoom="0.5"
     inkscape:cx="686.66561"
     inkscape:cy="1065"
     inkscape:document-units="px"
     inkscape:current-layer="layer1"
     showgrid="false"
     inkscape:snap-midpoints="true"
     inkscape:window-width="1369"
     inkscape:window-height="839"
     inkscape:window-x="39"
     inkscape:window-y="0"
     inkscape:window-maximized="0" />
  <metadata
     id="metadata7">
    <rdf:RDF>
      <cc:Work
         rdf:about="">
        <dc:format>image/svg+xml</dc:format>
        <dc:type
           rdf:resource="http://purl.org/dc/dcmitype/StillImage" />
        <dc:title></dc:title>
      </cc:Work>
    </rdf:RDF>
  </metadata>
  <g
     inkscape:label="Layer 1"
     inkscape:groupmode="layer"
     id="layer1">
    <rect
       style="fill:#ff5500;fill-opacity:1;stroke:none"
       id="rect2985"
       width="906.85706"
       height="194.28572"
       x="122.85714"
       y="103.79076" />
    <text
       xml:space="preserve"
       style="font-size:152.07014465px;font-style:normal;font-variant:normal;font-weight:100;font-stretch:normal;text-align:start;line-height:125%;letter-spacing:0px;word-spacing:0px;writing-mode:lr-tb;text-anchor:start;fill:#ffffff;fill-opacity:1;stroke:none;font-family:Mesmer;-inkscape-font-specification:Mesmer Thin"
       x="136.34109"
       y="264.68115"
       id="text2987"
       sodipodi:linespacing="125%"><tspan
         sodipodi:role="line"
         id="tspan2989"
         x="136.34109"
         y="264.68115">emitron</tspan></text>
    <path
       id="path3774"
       style="fill:#ffffff;fill-opacity:1;stroke:none"
       d="M 1108.2841,124.66254 C 1062.023,2.177484 921.80699,-65.369066 798.17569,-18.528156 683.49809,24.920424 620.27549,156.2989 664.28569,272.07648 705.02789,379.25706 827.91639,438.32834 936.15119,397.04256 1036.1406,358.90199 1091.2309,244.16096 1052.5645,143.16228 1016.9222,50.062834 909.99119,-1.214006 815.92669,34.936394 c -86.5062,33.24564 -134.1347,132.699066 -100.3983,220.126756 30.9494,80.205 123.2524,124.34773 204.336,92.92479 C 994.05549,319.2361 1034.8723,233.76157 1005.6639,158.734 979.01229,90.27427 900.04959,52.626364 830.79479,79.71766 c -63.006,24.64688 -97.6395,97.40911 -72.5695,161.16951 22.7363,57.82498 89.6039,89.59573 148.1433,66.45268 52.9117,-20.91815 81.9686,-82.19129 60.6599,-135.77835 -19.1909,-48.26104 -75.1643,-74.75004 -124.0623,-55.1846 -43.8679,17.55273 -67.9322,68.51534 -50.0206,112.98265 16.0021,39.72693 62.2371,61.50664 102.5267,45.1613 35.8328,-14.53727 55.4652,-56.32187 40.6,-92.68146 -13.1564,-32.18029 -50.7619,-49.79941 -83.4338,-36.33019 -28.7636,11.85801 -44.5005,45.5494 -32.3447,74.77035 10.64,25.57721 40.6762,39.55982 66.6774,28.63672 22.6153,-9.5007 34.9682,-36.13427 25.1989,-59.141 -8.4382,-19.87205 -31.9151,-30.71663 -52.1469,-22.02414 -17.3414,7.4506 -26.7956,28.01023 -19.1048,45.68074 6.536,15.01716 24.4109,23.19545 39.7275,16.43311 12.893,-5.69236 19.9064,-21.10813 14.0013,-34.27184 -4.9177,-10.96262 -18.0928,-16.91833 -29.2983,-11.80135 -9.2191,4.20991 -14.2208,15.35545 -9.8248,24.79077 3.5669,7.65579 12.8864,11.80302 20.7327,8.06305 6.2655,-2.98644 9.654,-10.67568 6.5073,-17.10712 -2.4663,-5.0408 -8.713,-7.7622 -13.8963,-5.1482 -3.9745,2.00422 -6.1158,6.9876 -3.9763,11.08218 1.5977,3.05781 5.4884,4.7023 8.6456,2.98154 2.2833,-1.24444 3.5088,-4.20405 2.1534,-6.56699 -0.9417,-1.64184 -3.1222,-2.5216 -4.8254,-1.48097 -1.1244,0.68696 -1.7263,2.23034 -0.9524,3.3993 0.4774,0.72107 1.5149,1.10747 2.2653,0.55514 0.4213,-0.3101 0.6484,-0.96156 0.2756,-1.39876 -0.1821,-0.21357 -0.5547,-0.33087 -0.7728,-0.0988 -0.085,0.0903 -0.134,0.27708 -0.01,0.35785 0.031,0.0201 0.1081,0.0336 0.1203,-0.0184 5e-4,-0.002 9e-4,-0.0218 -0.01,-0.0194 l 0.047,-0.11599 m 0,0 c -0.01,0.002 -0.01,-0.0173 -0.01,-0.0194 0.012,-0.0519 0.089,-0.0384 0.1203,-0.0184 0.1264,0.0808 0.077,0.26754 -0.01,0.35785 -0.2181,0.2321 -0.5907,0.1148 -0.7728,-0.0988 -0.3728,-0.43719 -0.1457,-1.08865 0.2756,-1.39875 0.7504,-0.55233 1.7879,-0.16594 2.2653,0.55513 0.7739,1.16896 0.172,2.71234 -0.9524,3.39931 -1.7032,1.04062 -3.8837,0.16087 -4.8254,-1.48097 -1.3554,-2.36295 -0.1299,-5.32256 2.1534,-6.56699 3.1572,-1.72077 7.0479,-0.0763 8.6456,2.98153 2.1395,4.09459 0,9.07796 -3.9762,11.08218 -5.1834,2.61401 -11.4301,-0.1074 -13.8964,-5.1482 -3.1467,-6.43144 0.2418,-14.12068 6.5073,-17.10712 7.8463,-3.73996 17.1658,0.40727 20.7327,8.06305 4.396,9.43533 -0.6056,20.58087 -9.8248,24.79077 -11.2055,5.11698 -24.3806,-0.83873 -29.2983,-11.80134 -5.9051,-13.16372 1.1083,-28.57949 14.0013,-34.27184 15.3166,-6.76235 33.1915,1.41595 39.7275,16.4331 7.6908,17.67052 -1.7634,38.23014 -19.1048,45.68075 -20.2318,8.69249 -43.7087,-2.1521 -52.1469,-22.02414 -9.7693,-23.00674 2.5836,-49.6403 25.1989,-59.14101 26.0012,-10.9231 56.0374,3.05952 66.6774,28.63672 12.1558,29.22095 -3.5811,62.91235 -32.3447,74.77035 -32.6719,13.46922 -70.2773,-4.1499 -83.4338,-36.33018 -14.8652,-36.3596 4.7672,-78.1442 40.6,-92.68146 40.2896,-16.34535 86.5246,5.43437 102.5267,45.16129 17.9116,44.46731 -6.1527,95.42992 -50.0206,112.98266 -48.898,19.56544 -104.8714,-6.92357 -124.0623,-55.18461 -21.3087,-53.58705 7.7482,-114.86019 60.6599,-135.77834 58.5395,-23.14307 125.407,8.6277 148.1433,66.45267 25.07011,63.76041 -9.5635,136.52263 -72.5695,161.1695 -69.2548,27.09131 -148.2175,-10.5566 -174.869,-79.01632 -29.2084,-75.02757 11.6083,-160.50211 85.7994,-189.253956 81.0836,-31.42294 173.3867,12.71979 204.33601,92.924806 33.7365,87.42768 -13.8921,186.88111 -100.39831,220.12675 -94.0645,36.1504 -200.9955,-15.12645 -236.6377,-108.22589 -38.6664,-100.99867 16.4238,-215.739716 116.4132,-253.880276 108.2348,-41.28579 231.12331,17.7855 271.86561,124.966086 l 28.9486,-9.51101"
       inkscape:connector-curvature="0"
       sodipodi:nodetypes="ccccssssssscssssssssssssssssssssssssssccsssssssssssssssssssssssssssscsssssssccccc" />
  </g>
</svg>
