<?xml version="1.0" encoding="UTF-8" standalone="no"?>
<!-- Created with Inkscape (http://www.inkscape.org/) -->

<svg
   xmlns:dc="http://purl.org/dc/elements/1.1/"
   xmlns:cc="http://creativecommons.org/ns#"
   xmlns:rdf="http://www.w3.org/1999/02/22-rdf-syntax-ns#"
   xmlns:svg="http://www.w3.org/2000/svg"
   xmlns="http://www.w3.org/2000/svg"
   xmlns:sodipodi="http://sodipodi.sourceforge.net/DTD/sodipodi-0.dtd"
   xmlns:inkscape="http://www.inkscape.org/namespaces/inkscape"
   width="744.09448819"
   height="1052.3622047"
   id="svg2"
   version="1.1"
   inkscape:version="0.48.2 r9819"
   sodipodi:docname="emitron.svg">
  <defs
     id="defs4" />
  <sodipodi:namedview
     id="base"
     pagecolor="#ffffff"
     bordercolor="#666666"
     borderopacity="1.0"
     inkscape:pageopacity="0.0"
     inkscape:pageshadow="2"
     inkscape:zoom="0.5"
     inkscape:cx="822.7315"
     inkscape:cy="1046"
     inkscape:document-units="px"
     inkscape:current-layer="layer1"
     showgrid="false"
     inkscape:snap-midpoints="true"
     inkscape:window-width="1369"
     inkscape:window-height="839"
     inkscape:window-x="39"
     inkscape:window-y="0"
     inkscape:window-maximized="0" />
  <metadata
     id="metadata7">
    <rdf:RDF>
      <cc:Work
         rdf:about="">
        <dc:format>image/svg+xml</dc:format>
        <dc:type
           rdf:resource="http://purl.org/dc/dcmitype/StillImage" />
        <dc:title></dc:title>
      </cc:Work>
    </rdf:RDF>
  </metadata>
  <g
     inkscape:label="Layer 1"
     inkscape:groupmode="layer"
     id="layer1">
    <rect
       style="fill:#ff5500;fill-opacity:1;stroke:none"
       id="rect2985"
       width="906.85706"
       height="194.28572"
       x="122.85714"
       y="103.79076"
       inkscape:export-xdpi="90"
       inkscape:export-ydpi="90" />
    <text
       xml:space="preserve"
       style="font-size:172.6469574px;font-style:normal;font-variant:normal;font-weight:100;font-stretch:normal;text-align:start;line-height:125%;letter-spacing:0px;word-spacing:0px;writing-mode:lr-tb;text-anchor:start;fill:#ffffff;fill-opacity:1;stroke:none;font-family:Mesmer;-inkscape-font-specification:Mesmer Thin"
       x="197.82668"
       y="264.3725"
       id="text2987"
       sodipodi:linespacing="125%"><tspan
         sodipodi:role="line"
         id="tspan2989"
         x="197.82668"
         y="264.3725">emitron</tspan></text>
    <path
       sodipodi:nodetypes="ccccssssssscssssssssssssssssssssssssssccsssssssssssssssssssssssssssscsssssssccccc"
       inkscape:connector-curvature="0"
       d="m 440.2841,-329.33746 c -46.2611,-122.48506 -186.47711,-190.03161 -310.10841,-143.1907 -114.6776,43.44858 -177.9002,174.82706 -133.89,290.60464 40.7422,107.18058 163.6307,166.25186 271.8655,124.96608 99.98941,-38.14057 155.07971,-152.8816 116.41331,-253.88028 -35.6423,-93.09945 -142.57331,-144.37629 -236.63781,-108.22589 -86.5062,33.24564 -134.1347,132.69907 -100.3983,220.12676 30.9494,80.205 123.2524,124.34773 204.336,92.92479 74.1911,-28.75184 115.00791,-114.22637 85.79951,-189.25394 -26.65161,-68.45973 -105.61431,-106.10764 -174.86911,-79.01634 -63.006,24.64688 -97.6395,97.40911 -72.5695,161.16951 22.7363,57.82498 89.6039,89.59573 148.1433,66.45268 52.9117,-20.91815 81.9686,-82.19129 60.6599,-135.77835 -19.1909,-48.26104 -75.1643,-74.75004 -124.0623,-55.1846 -43.8679,17.55273 -67.9322,68.51534 -50.0206,112.98265 16.0021,39.72693 62.2371,61.50664 102.5267,45.1613 35.8328,-14.53727 55.4652,-56.32187 40.6,-92.68146 -13.1564,-32.18029 -50.7619,-49.79941 -83.4338,-36.33019 -28.7636,11.85801 -44.5005,45.5494 -32.3447,74.77035 10.64,25.57721 40.6762,39.55982 66.6774,28.63672 22.6153,-9.5007 34.9682,-36.13427 25.1989,-59.141 -8.4382,-19.87205 -31.9151,-30.71663 -52.1469,-22.02414 -17.3414,7.4506 -26.7956,28.01023 -19.1048,45.68074 6.536,15.01716 24.4109,23.19545 39.7275,16.43311 12.893,-5.69236 19.9064,-21.10813 14.0013,-34.27184 -4.9177,-10.96262 -18.0928,-16.91833 -29.2983,-11.80135 -9.2191,4.20991 -14.2208,15.35545 -9.8248,24.79077 3.5669,7.65579 12.8864,11.80302 20.7327,8.06305 6.2655,-2.98644 9.654,-10.67568 6.5073,-17.10712 -2.4663,-5.0408 -8.713,-7.7622 -13.8963,-5.1482 -3.9745,2.00422 -6.1158,6.9876 -3.9763,11.08218 1.5977,3.05781 5.4884,4.7023 8.6456,2.98154 2.2833,-1.24444 3.5088,-4.20405 2.1534,-6.56699 -0.9417,-1.64184 -3.1222,-2.5216 -4.8254,-1.48097 -1.1244,0.68696 -1.7263,2.23034 -0.9524,3.3993 0.4774,0.72107 1.5149,1.10747 2.2653,0.55514 0.4213,-0.3101 0.6484,-0.96156 0.2756,-1.39876 -0.1821,-0.21357 -0.5547,-0.33087 -0.7728,-0.0988 -0.085,0.0903 -0.134,0.27708 -0.01,0.35785 0.031,0.0201 0.1081,0.0336 0.1203,-0.0184 5e-4,-0.002 9e-4,-0.0218 -0.01,-0.0194 l 0.047,-0.11599 m 0,0 c -0.01,0.002 -0.01,-0.0173 -0.01,-0.0194 0.012,-0.0519 0.089,-0.0384 0.1203,-0.0184 0.1264,0.0808 0.077,0.26754 -0.01,0.35785 -0.2181,0.2321 -0.5907,0.1148 -0.7728,-0.0988 -0.3728,-0.43719 -0.1457,-1.08865 0.2756,-1.39875 0.7504,-0.55233 1.7879,-0.16594 2.2653,0.55513 0.7739,1.16896 0.172,2.71234 -0.9524,3.39931 -1.7032,1.04062 -3.8837,0.16087 -4.8254,-1.48097 -1.3554,-2.36295 -0.1299,-5.32256 2.1534,-6.56699 3.1572,-1.72077 7.0479,-0.0763 8.6456,2.98153 2.1395,4.09459 0,9.07796 -3.9762,11.08218 -5.1834,2.61401 -11.4301,-0.1074 -13.8964,-5.1482 -3.1467,-6.43144 0.2418,-14.12068 6.5073,-17.10712 7.8463,-3.73996 17.1658,0.40727 20.7327,8.06305 4.396,9.43533 -0.6056,20.58087 -9.8248,24.79077 -11.2055,5.11698 -24.3806,-0.83873 -29.2983,-11.80134 -5.9051,-13.16372 1.1083,-28.57949 14.0013,-34.27184 15.3166,-6.76235 33.1915,1.41595 39.7275,16.4331 7.6908,17.67052 -1.7634,38.23014 -19.1048,45.68075 -20.2318,8.69249 -43.7087,-2.1521 -52.1469,-22.02414 -9.7693,-23.00674 2.5836,-49.6403 25.1989,-59.14101 26.0012,-10.9231 56.0374,3.05952 66.6774,28.63672 12.1558,29.22095 -3.5811,62.91235 -32.3447,74.77035 -32.6719,13.46922 -70.2773,-4.1499 -83.4338,-36.33018 -14.8652,-36.3596 4.7672,-78.1442 40.6,-92.68146 40.2896,-16.34535 86.5246,5.43437 102.5267,45.16129 17.9116,44.46731 -6.1527,95.42992 -50.0206,112.98266 -48.898,19.56544 -104.8714,-6.92357 -124.0623,-55.18461 -21.3087,-53.58705 7.7482,-114.86019 60.6599,-135.77834 58.5395,-23.14307 125.407,8.6277 148.1433,66.45267 25.07011,63.76041 -9.5635,136.52263 -72.5695,161.1695 -69.2548,27.09131 -148.2175,-10.5566 -174.869,-79.01632 -29.2084,-75.02757 11.6083,-160.50211 85.7994,-189.25396 81.0836,-31.42294 173.3867,12.71979 204.33601,92.92481 33.7365,87.42768 -13.8921,186.88111 -100.39831,220.12675 -94.0645,36.1504 -200.9955,-15.12645 -236.6377,-108.22589 -38.6664,-100.99867 16.4238,-215.73972 116.4132,-253.88028 108.2348,-41.28579 231.12331,17.7855 271.86561,124.96609 l 28.9486,-9.51101"
       style="fill:#000000;fill-opacity:1;stroke:none"
       id="path3798" />
    <g
       id="g4140"
       transform="translate(-357.47337,-253.64635)">
      <path
         id="path4142"
         style="fill:none;stroke:#ff0000;stroke-width:12.88640022;stroke-linecap:round;stroke-linejoin:round;stroke-miterlimit:4;stroke-opacity:1;stroke-dasharray:none;marker-end:none"
         d="m 1221.5736,67.08683 0,0 c -29.8755,-29.875476 -29.8755,-78.313183 0,-108.188656 m -18.102,126.29059 0,0 c -39.8729,-39.872903 -39.8729,-104.51963 0,-144.392523 m -18.3134,162.705929 0,0 c -49.9871,-49.987088 -49.9871,-131.032232 0,-181.019342"
         inkscape:connector-curvature="0" />
      <path
         id="path4144"
         style="fill:none;stroke:#ff0000;stroke-width:12.88640022;stroke-linecap:round;stroke-linejoin:round;stroke-miterlimit:4;stroke-opacity:1;stroke-dasharray:none;marker-end:none"
         d="m 1329.7621,-41.101829 c 29.8756,29.875476 29.8756,78.313179 0,108.188654 m 18.102,-126.290587 c 39.8729,39.872903 39.8729,104.519623 0,144.392518 m 18.3134,-162.70592 c 49.9871,49.987083 49.9872,131.032223 0,181.019324"
         inkscape:connector-curvature="0" />
    </g>
    <path
       id="path4159"
       style="fill:#30404b;fill-opacity:1;stroke:#000000;stroke-width:1;stroke-linecap:butt;stroke-linejoin:round;stroke-miterlimit:22.89999962;stroke-opacity:1;stroke-dasharray:none"
       d="m 1146,-781.63793 c 63.6671,-231.17117 -69.6164,-484.11387 -304.1668,-547.49997 -211.2705,-57.0948 -442.1421,65.1492 -498.83323,279.8335 -50.53366,191.36654 60.67863,400.18545 255.50013,450.16661 171.458,43.98729 358.2494,-56.20396 401.4999,-231.16677 37.4613,-151.54337 -51.7238,-316.34284 -206.8334,-352.83324 -131.62,-30.9644 -274.4806,47.2361 -304.1666,182.5 -24.511,111.68371 42.7386,232.68888 158.1667,255.5 91.7263,18.1271 191.0199,-38.22811 206.8333,-133.83339 11.8644,-71.73035 -33.7061,-149.59251 -109.5,-158.16661 -51.6469,-5.8426 -108.7401,29.2143 -109.5,85.16667 -0.4249,31.27988 25.2416,69.73814 60.8333,60.83332 13.1338,-3.28599 34.1273,-29.17981 12.1667,-36.50001 m 0,0 -1.2913,-0.31549 c -21.9606,-7.3202 -0.9671,-33.21402 12.1667,-36.50001 35.5917,-8.90482 61.2582,29.55344 60.8333,60.83332 -0.7599,55.95236 -57.8531,91.00923 -109.5,85.1667 -75.7939,-8.57416 -121.3644,-86.43629 -109.5,-158.16664 15.8134,-95.60526 115.107,-151.96046 206.8333,-133.83336 115.4281,22.8111 182.6777,143.81626 158.1667,255.49993 -29.686,135.26389 -172.5466,213.46442 -304.1666,182.50008 -155.1096,-36.49041 -244.2947,-201.28991 -206.8334,-352.83331 43.2505,-174.9628 230.0419,-275.1541 401.4999,-231.1668 194.8215,49.9812 306.0338,258.80013 255.5001,450.16666 L 1146,-781.63793"
       inkscape:connector-curvature="0"
       sodipodi:nodetypes="csssssssssssccssssssssscc" />
    <g
       id="g4232"
       style="fill:#ffffff;fill-opacity:1"
       transform="translate(-568.87336,-372.5454)">
      <path
         inkscape:connector-curvature="0"
         id="path3840"
         d="m 725.01816,73.969683 a 8.4357011,8.4357011 0 0 0 -5.80918,2.577311 c -68.66198,68.661996 -68.66198,180.232566 0,248.894536 a 8.446836,8.446836 0 1 0 11.94563,-11.94563 c -62.21524,-62.21523 -62.21524,-162.82893 0,-225.044187 a 8.4357011,8.4357011 0 0 0 -6.13645,-14.48203 z m 23.97308,23.973077 a 8.4357011,8.4357011 0 0 0 -5.80918,2.57731 c -55.42138,55.42137 -55.42138,145.527 0,200.94839 a 8.446836,8.446836 0 1 0 11.94563,-11.94563 c -48.97464,-48.97465 -48.97464,-128.12341 0,-177.09804 a 8.4357011,8.4357011 0 0 0 -6.13645,-14.48203 z m 23.68671,23.72762 a 8.4357011,8.4357011 0 0 0 -5.76827,2.5364 c -42.33369,42.33366 -42.33369,111.24131 0,153.57497 a 8.4357011,8.4357011 0 1 0 11.90472,-11.94563 c -35.88695,-35.88692 -35.88695,-93.79679 0,-129.68371 a 8.4357011,8.4357011 0 0 0 -6.13645,-14.48203 z"
         style="font-size:medium;font-style:normal;font-variant:normal;font-weight:normal;font-stretch:normal;text-indent:0;text-align:start;text-decoration:none;line-height:normal;letter-spacing:normal;word-spacing:normal;text-transform:none;direction:ltr;block-progression:tb;writing-mode:lr-tb;text-anchor:start;baseline-shift:baseline;color:#000000;fill:#ffffff;fill-opacity:1;stroke:none;stroke-width:12.88640022;marker:none;visibility:visible;display:inline;overflow:visible;enable-background:accumulate;font-family:Sans;-inkscape-font-specification:Sans" />
      <path
         inkscape:connector-curvature="0"
         id="path3804"
         d="m 962.0898,73.969683 a 8.4357011,8.4357011 0 0 0 -5.891,14.48203 c 62.2152,62.215217 62.2154,162.828947 0,225.044187 a 8.4357011,8.4357011 0 1 0 11.90472,11.94563 c 68.66208,-68.66198 68.66198,-180.23258 0,-248.894536 A 8.4357011,8.4357011 0 0 0 962.0898,73.969683 z M 938.07581,97.94276 a 8.4357011,8.4357011 0 0 0 -5.85008,14.48203 c 48.97464,48.97464 48.97464,128.12339 0,177.09804 a 8.4357011,8.4357011 0 1 0 11.90472,11.94563 c 55.42138,-55.42139 55.42138,-145.52701 0,-200.94839 a 8.4357011,8.4357011 0 0 0 -6.05464,-2.57731 z m -23.68671,23.68671 a 8.4357011,8.4357011 0 0 0 -5.85008,14.52294 c 35.88706,35.88692 35.88706,93.7968 0,129.68371 a 8.4357011,8.4357011 0 1 0 11.90472,11.94563 c 42.33383,-42.33365 42.33383,-111.24131 0,-153.57497 a 8.4357011,8.4357011 0 0 0 -6.05464,-2.57731 z"
         style="font-size:medium;font-style:normal;font-variant:normal;font-weight:normal;font-stretch:normal;text-indent:0;text-align:start;text-decoration:none;line-height:normal;letter-spacing:normal;word-spacing:normal;text-transform:none;direction:ltr;block-progression:tb;writing-mode:lr-tb;text-anchor:start;baseline-shift:baseline;color:#000000;fill:#ffffff;fill-opacity:1;stroke:none;stroke-width:12.88640022;marker:none;visibility:visible;display:inline;overflow:visible;enable-background:accumulate;font-family:Sans;-inkscape-font-specification:Sans" />
    </g>
    <path
       style="fill:#ffffff;fill-opacity:1;stroke:none;stroke-width:0.39208390999999998;stroke-linecap:butt;stroke-linejoin:round;stroke-miterlimit:22.89999961999999911;stroke-opacity:1;stroke-dasharray:none"
       d="m 1016.3649,241.08013 c -0.2551,0.55245 -0.4836,1.11876 -0.7474,1.66637 -0.7946,1.64921 -1.616,3.27296 -2.4873,4.87652 -0.871,1.60359 -1.7872,3.1862 -2.7324,4.7418 -0.945,1.55559 -1.9234,3.08949 -2.9405,4.59469 -1.0171,1.50526 -2.0749,2.98302 -3.1614,4.43549 -1.086,1.45244 -2.2038,2.87879 -3.357,4.27613 -1.15336,1.39737 -2.33561,2.76476 -3.55336,4.10466 -1.21755,1.33987 -2.46916,2.65304 -3.74926,3.93307 -1.27986,1.28003 -2.59318,2.5315 -3.93289,3.74932 -1.34012,1.21779 -2.70745,2.40004 -4.10469,3.55325 -1.39745,1.1532 -2.82379,2.27098 -4.27629,3.35722 -1.45251,1.08622 -2.93014,2.14428 -4.43541,3.16116 -1.50526,1.01693 -3.03921,1.99545 -4.59475,2.94064 -1.55553,0.94519 -3.13809,1.84895 -4.74182,2.72011 -1.60374,0.8711 -3.22723,1.70484 -4.87666,2.49952 -1.64902,0.79466 -3.31881,1.55088 -5.01127,2.26674 -1.69243,0.71583 -3.40045,1.39926 -5.13382,2.0339 -1.73335,0.63469 -3.49664,1.22555 -5.26843,1.77664 -1.772,0.55112 -3.55877,1.05416 -5.36671,1.51935 -1.80815,0.46517 -3.63521,0.89737 -5.47681,1.27425 -1.84199,0.37692 -3.70189,0.70623 -5.57505,0.99248 -1.87319,0.28622 -3.75861,0.52971 -5.66087,0.72291 -1.90204,0.19319 -3.81739,0.33106 -5.74645,0.42885 -1.92884,0.0979 -3.86683,0.1471 -5.81998,0.1471 -1.95336,0 -3.90319,-0.0492 -5.83225,-0.1471 -1.92884,-0.0976 -3.84419,-0.23577 -5.74624,-0.42885 -1.90245,-0.1932 -3.78768,-0.43669 -5.66084,-0.72291 -1.87339,-0.28625 -3.73327,-0.61556 -5.57487,-0.99248 -1.8418,-0.37688 -3.66906,-0.80908 -5.47721,-1.27425 -1.80774,-0.46519 -3.5947,-0.96823 -5.3665,-1.51935 -1.77199,-0.55109 -3.52302,-1.14195 -5.25639,-1.77664 -1.73316,-0.63464 -3.45365,-1.31807 -5.14608,-2.0339 -1.69245,-0.71586 -3.36225,-1.47208 -5.01127,-2.26674 -1.64924,-0.7947 -3.27292,-1.62842 -4.87665,-2.49952 -1.60352,-0.87116 -3.18607,-1.77492 -4.74162,-2.72011 -1.55575,-0.94519 -3.08947,-1.92371 -4.59475,-2.94064 -1.50527,-1.01688 -2.98312,-2.07494 -4.43563,-3.16116 -1.4525,-1.08624 -2.87881,-2.20402 -4.27607,-3.35722 -1.39724,-1.15321 -2.76477,-2.33546 -4.10449,-3.55325 -1.34011,-1.21782 -2.65321,-2.46929 -3.93309,-3.74932 -1.28009,-1.28003 -2.51946,-2.5932 -3.73722,-3.93307 -1.21775,-1.3399 -2.41223,-2.70729 -3.5656,-4.10466 -1.15316,-1.39734 -2.27079,-2.82369 -3.35704,-4.27613 -1.08627,-1.45247 -2.14429,-2.93023 -3.16116,-4.43549 -1.01688,-1.5052 -1.99532,-3.0391 -2.94053,-4.59469 -0.94541,-1.5556 -1.84907,-3.13821 -2.72012,-4.7418 -0.87125,-1.60356 -1.70511,-3.22731 -2.49971,-4.87652 -0.79481,-1.64923 -1.55075,-3.31887 -2.26662,-5.01135 -0.71608,-1.69246 -1.39934,-3.41271 -2.03397,-5.14608 -0.63463,-1.73339 -1.22545,-3.48449 -1.77678,-5.25639 -0.55114,-1.77188 -1.05387,-3.55859 -1.51919,-5.36664 -0.46513,-1.80804 -0.88518,-3.63511 -1.26201,-5.47693 -0.37704,-1.84184 -0.71856,-3.7017 -1.00463,-5.57491 -0.28625,-1.87327 -0.51768,-3.75845 -0.71066,-5.66074 -0.1932,-1.90227 -0.34339,-3.81754 -0.44124,-5.74647 -0.0975,-1.92896 -0.14743,-3.86676 -0.14743,-5.82001 0,-1.95324 0.0499,-3.90329 0.14743,-5.83223 0.0996,-1.92896 0.24783,-3.84419 0.44124,-5.7465 0.19321,-1.90229 0.42441,-3.78746 0.71066,-5.66069 0.28607,-1.87326 0.62759,-3.73313 1.00463,-5.57496 0.37683,-1.84182 0.79688,-3.66885 1.26201,-5.47691 0.46532,-1.80807 0.96805,-3.59475 1.51919,-5.36666 0.55133,-1.7719 1.14215,-3.523 1.77678,-5.25637 0.63463,-1.73337 1.31789,-3.45364 2.03397,-5.1461 0.47613,-1.12551 0.99589,-2.22615 1.50693,-3.3327 14.48017,-25.59638 38.5331,-45.52513 69.12936,-52.723064 51.60606,-12.140622 107.61533,18.520544 119.25489,71.555324 9.61019,43.78936 -16.75303,91.23357 -62.0106,100.17744 -35.96444,7.10735 -74.90015,-14.9927 -81.10028,-52.47797 -4.65167,-28.1243 13.21566,-58.64874 42.93319,-62.0105 20.25009,-2.29079 42.63531,11.45036 42.93341,33.38838 0.16829,12.26431 -9.901,27.34727 -23.856,23.85584 -5.14961,-1.28838 -13.37665,-11.44092 -4.76612,-14.31106 l 0.50229,-0.13457 c 8.61033,-2.87013 0.38328,-13.02269 -4.76632,-14.31105 -13.95502,-3.49145 -24.0224,11.59149 -23.856,23.85584 0.29829,21.93802 22.68331,35.67914 42.9334,33.38839 29.71754,-3.36179 47.58508,-33.88619 42.93321,-62.01052 -6.20015,-37.4853 -45.12339,-59.58534 -81.08781,-52.47796 -45.25759,8.94387 -71.63324,56.38804 -62.02288,100.17743 11.63956,53.03477 67.66109,83.69592 119.26715,71.5553 30.59002,-7.1965 54.62365,-27.1216 69.10465,-52.71078 z"
       id="path4183"
       inkscape:connector-curvature="0" />
  </g>
</svg>
